<svg xmlns="http://www.w3.org/2000/svg" width="83" height="79" viewBox="0 0 83 79">
  <path style="fill:#fff;fill-rule:evenodd" d="M609.16,2105.07a4.587,4.587,0,1,1,4.894,4.25A4.58,4.58,0,0,1,609.16,2105.07Zm44.321-37.85a3.7,3.7,0,1,0,4.528,2.65A3.694,3.694,0,0,0,653.481,2067.22Zm14.852,19.57a2.816,2.816,0,1,0,3.442,2.02A2.813,2.813,0,0,0,668.333,2086.79Zm5.716-20.51a6.91,6.91,0,1,0,5.886,7.82A6.929,6.929,0,0,0,674.049,2066.28Zm-63.628-21.75a5.226,5.226,0,1,1-6.8,2.93A5.214,5.214,0,0,1,610.421,2044.53ZM621,2039.49a2.069,2.069,0,1,1-2.362,1.73A2.076,2.076,0,0,1,621,2039.49Zm-6.392,18.39a1.693,1.693,0,1,1-2.066,1.22A1.691,1.691,0,0,1,614.612,2057.88Zm38.987,24.81a17.234,17.234,0,0,0-13.72-3.96c-1.783.26-3.885,0.08-4.949-1.57-1.616-2.5,1.172-4.78,1.849-7.79s-2.154-4.85-.114-7.07c1.395-1.51,3.8-.29,5.293.34a15.3,15.3,0,0,0,6.292,1.26,15.106,15.106,0,0,0,11.121-5.23,14.983,14.983,0,1,0-25.931-6.08c0.4,1.6,1.285,3.14,1.352,4.8,0.146,3.64-3.5,3.5-6.066,3.24a7.616,7.616,0,0,0-6.474,2.72,8.07,8.07,0,0,0,.886,11.41c2.13,1.82,4.617,1.38,6.913,2.6a3.346,3.346,0,0,1,1.769,1.98c0.377,1.49-.874,3.43-1.88,4.47-0.238.24-.471,0.49-0.7,0.76-0.2.23-.391,0.47-0.576,0.71-1.591,2.06-6.2,3.73-6.758.02-0.3-1.96-.071-3.77-0.787-5.71a12.444,12.444,0,1,0-10.7,16.69,11.2,11.2,0,0,0,5.184-1.82c1.58-1.03,2.884-2.96,4.677-3.6a3.267,3.267,0,0,1,3.942,2.02c1.258,2.73.853,5.8,1.849,8.63a17.256,17.256,0,1,0,27.524-18.82m0.121,26.06H642.166v4.24h0.189a17.263,17.263,0,0,0,11.365-4.24m5.882-11.88h-5.524v11.56a17.315,17.315,0,0,0,5.524-11.56m-0.465-5.22h-5.059v5.22H659.6q0.035-.54.035-1.08a17.407,17.407,0,0,0-.5-4.14m-3.087-6.39h-1.972v6.39h5.059a17.132,17.132,0,0,0-3.087-6.39m-1.972,11.61H642.166v11.88H653.72c0.12-.1.24-0.21,0.358-0.32v-11.56m0-5.22H642.166v5.22h11.912v-5.22m0-6.39H642.166v6.39h11.912v-6.39m-54.322-9.15a12.395,12.395,0,0,0,0,15.59v-15.59m2.356-2.24a12.576,12.576,0,0,0-2.12,1.96c-0.08.09-.159,0.19-0.236,0.28v15.59a12.366,12.366,0,0,0,1.593,1.63c0.247,0.21.5,0.42,0.763,0.6v-20.06m0.786-.52c-0.267.16-.529,0.34-0.786,0.52v20.06c0.256,0.19.518,0.37,0.786,0.53v-21.11m39.268,35.4H631.009a0.964,0.964,0,0,0,.118.1,17.2,17.2,0,0,0,11.039,4.14v-4.24m0-11.88H625.213a22.253,22.253,0,0,0,.862,4.64,17.192,17.192,0,0,0,4.934,7.24h11.157v-11.88m0-5.22h-18.8a4.316,4.316,0,0,1,.86,1.23,13.452,13.452,0,0,1,.987,3.99h16.953v-5.22m-37.043-19.39a12.7,12.7,0,0,0-2.225,1.09v21.11a12.548,12.548,0,0,0,6.563,1.86c0.32,0,.641-0.01.962-0.04a11.2,11.2,0,0,0,5.184-1.82c1.136-.74,2.129-1.95,3.264-2.81H605.123v-19.39m4.329-.77a12.579,12.579,0,0,0-4.329.77v19.39h13.748a5.482,5.482,0,0,1,1.413-.79,2.8,2.8,0,0,1,.924-0.17,3.136,3.136,0,0,1,2.158.96h18.8v-6.39H628.68a0.034,0.034,0,0,0-.013.02,6.188,6.188,0,0,1-4.349,2.22,2.286,2.286,0,0,1-2.409-2.2c0-.01,0-0.03-0.007-0.04H611.537v-13.59a12.181,12.181,0,0,0-2.085-.18M647.99,2034a14.986,14.986,0,0,0-14.875,13.02h29.736A14.99,14.99,0,0,0,647.99,2034m14.861,13.02H633.115q-0.057.435-.088,0.87-0.038.525-.037,1.05a14.983,14.983,0,0,0,.17,2.25h9.006v5.49h18.656a14.95,14.95,0,0,0,2.029-9.66m-2.029,9.66H642.166v2.08h11.912v3.84a15.015,15.015,0,0,0,5.293-3.93,14.853,14.853,0,0,0,1.451-1.99m-6.744,2.08H642.166v3.97a15.513,15.513,0,0,0,5.823,1.17h0.261a15.1,15.1,0,0,0,5.828-1.3v-3.84m0,24.35v2.15h1.972a17.174,17.174,0,0,0-1.972-2.15m-11.7-4.56h-0.21v6.71h11.912v-2.15q-0.234-.21-0.479-0.42a17.226,17.226,0,0,0-11.223-4.14m-0.21-27.36H633.16c0.071,0.47.165,0.94,0.28,1.4,0.343,1.37,1.038,2.69,1.275,4.09h7.451v-5.49m0,5.49h-7.451a5.507,5.507,0,0,1,.077.71c0,0.08,0,.14,0,0.21h0a3.638,3.638,0,0,1-.17,1.16h7.54v-2.08m0,2.08h-7.54c-0.533,1.61-2.238,1.99-3.971,1.99-0.66,0-1.324-.06-1.929-0.12q-0.345-.03-0.689-0.03a7.719,7.719,0,0,0-5.785,2.75,8.069,8.069,0,0,0,.886,11.41c2.13,1.82,4.617,1.38,6.913,2.6a3.346,3.346,0,0,1,1.769,1.98,2.328,2.328,0,0,1,.068.58h0a6.513,6.513,0,0,1-1.948,3.89c-0.238.24-.471,0.49-0.7,0.76q-0.293.33-.563,0.69h13.486v-6.71a17.519,17.519,0,0,0-2.287.18,8.83,8.83,0,0,1-1.268.1,4.131,4.131,0,0,1-3.681-1.67,2.915,2.915,0,0,1-.5-1.62h0c0-1.91,1.816-3.82,2.345-6.17a4.256,4.256,0,0,0,.108-0.96c0-1.7-.973-3.03-0.974-4.33h0a2.522,2.522,0,0,1,.752-1.78,2.3,2.3,0,0,1,1.764-.73,9.887,9.887,0,0,1,3.529,1.07l0.208,0.09v-3.97m-30.629,12.91v13.59H621.9c-0.286-1.95-.07-3.75-0.78-5.67a12.46,12.46,0,0,0-9.585-7.92" transform="translate(-597 -2034)"/>
</svg>
