<svg xmlns="http://www.w3.org/2000/svg" width="87" height="73" viewBox="0 0 87 73">
  <metadata><?xpacket begin="﻿" id="W5M0MpCehiHzreSzNTczkc9d"?>
<x:xmpmeta xmlns:x="adobe:ns:meta/" x:xmptk="Adobe XMP Core 5.6-c138 79.159824, 2016/09/14-01:09:01        ">
   <rdf:RDF xmlns:rdf="http://www.w3.org/1999/02/22-rdf-syntax-ns#">
      <rdf:Description rdf:about=""/>
   </rdf:RDF>
</x:xmpmeta>
                                                                                                    
                                                                                                    
                                                                                                    
                                                                                                    
                                                                                                    
                                                                                                    
                                                                                                    
                                                                                                    
                                                                                                    
                                                                                                    
                                                                                                    
                                                                                                    
                                                                                                    
                                                                                                    
                                                                                                    
                                                                                                    
                                                                                                    
                                                                                                    
                                                                                                    
                                                                                                    
                           
<?xpacket end="w"?></metadata>
<defs>
    <style>
      .cls-1 {
        fill: #fff;
        fill-rule: evenodd;
      }
    </style>
  </defs>
  <path class="cls-1" d="M258.258,2104.34a2.852,2.852,0,1,0,3.439-2.09A2.84,2.84,0,0,0,258.258,2104.34Zm-15.639-14.75a6.91,6.91,0,0,0,1.525,9.71,7.048,7.048,0,0,0,9.792-1.51,6.924,6.924,0,0,0-1.525-9.72A7.05,7.05,0,0,0,242.619,2089.59Zm-2.96-43.66a4.584,4.584,0,0,1-2.8-5.88,4.656,4.656,0,0,1,5.93-2.78A4.6,4.6,0,1,1,239.659,2045.93Zm-1.618,9.74a2.095,2.095,0,1,1,2.5,1.57A2.081,2.081,0,0,1,238.041,2055.67Zm50.3,24.23a6.364,6.364,0,1,1,5.31,7.21A6.355,6.355,0,0,1,288.345,2079.9Zm-4.028,13.08c-2.051-1.47-3.943-2.99-3.9-5.86a7.638,7.638,0,0,1,1.085-3.69c1.231-2.11,3.149-3.72,4.751-5.57a23.083,23.083,0,0,0,3.515-24.16,22.966,22.966,0,0,0-41.5-.47,48.789,48.789,0,0,0-3.114,10.08,4.8,4.8,0,0,1-1.7,3.16,3.514,3.514,0,0,1-3.687-.34,20.1,20.1,0,0,1-2.833-2.67,13.954,13.954,0,0,0-15.411-2.46,13.291,13.291,0,1,0,17.352,18.58c1.365-2.37,2.348-5.49,5.011-6.19a5.425,5.425,0,0,1,4.642,1.34,31.333,31.333,0,0,1,3.36,3.7,21.594,21.594,0,0,0,9.786,6.29c2.571,0.79,5.294,1.1,7.765,2.15s4.764,3.13,5,5.79c0.22,2.43-1.292,4.66-1.779,7.06a8.879,8.879,0,0,0,4.9,9.55,9.013,9.013,0,0,0,10.491-2.56,8.828,8.828,0,0,0-.108-10.71,17.769,17.769,0,0,0-3.633-3.02m-5.343-50.23v14.87H291.1a21.2,21.2,0,0,0-1.338-3.92,23.155,23.155,0,0,0-10.792-10.95m-10.045-2.41a22.09,22.09,0,0,0-6.361.95v0.58h14.39a22.34,22.34,0,0,0-7.792-1.53h-0.237m-6.361.95c-0.573.17-1.139,0.36-1.7,0.58h1.7v-0.58m21.749,51.69c-2.051-1.47-3.943-2.99-3.9-5.86a7.638,7.638,0,0,1,1.085-3.69c1.231-2.11,3.149-3.72,4.751-5.57a23.083,23.083,0,0,0,3.515-24.16,22.966,22.966,0,0,0-41.5-.47,48.789,48.789,0,0,0-3.114,10.08,4.8,4.8,0,0,1-1.7,3.16,3.514,3.514,0,0,1-3.687-.34,20.1,20.1,0,0,1-2.833-2.67,13.954,13.954,0,0,0-15.411-2.46,13.291,13.291,0,1,0,17.352,18.58c1.365-2.37,2.348-5.49,5.011-6.19a5.425,5.425,0,0,1,4.642,1.34,31.333,31.333,0,0,1,3.36,3.7,21.594,21.594,0,0,0,9.786,6.29c2.571,0.79,5.294,1.1,7.765,2.15s4.764,3.13,5,5.79c0.22,2.43-1.292,4.66-1.779,7.06a8.879,8.879,0,0,0,4.9,9.55,9.013,9.013,0,0,0,10.491-2.56,8.828,8.828,0,0,0-.108-10.71,17.769,17.769,0,0,0-3.633-3.02m-7.359-51.11h-14.39v1.7h10.188v14.05h6.218v-14.87c-0.658-.32-1.331-0.62-2.016-0.88m-14.39,0h-1.7a24.352,24.352,0,0,0-3.541,1.7h5.239v-1.7m-46.837,24.71a13.543,13.543,0,0,0-1.723,6.52,12.266,12.266,0,0,0,.094,1.51,12.788,12.788,0,0,0,1.629,4.77v-12.8m57.025-23.01H262.568v14.05h10.188v-14.05m-10.188,0h-5.239a22.944,22.944,0,0,0-9.062,9.66,29.988,29.988,0,0,0-1.662,4.39h15.963v-14.05m-37.443,16.3a12.717,12.717,0,0,0-3.6,1.13,13.374,13.374,0,0,0-5.791,5.58v12.8a13.7,13.7,0,0,0,8.956,6.58c0.145,0.02.292,0.05,0.438,0.08v-26.17m2.206-.18a13.565,13.565,0,0,0-2.206.18v26.17a12.586,12.586,0,0,0,2.032.16,13.721,13.721,0,0,0,11.717-6.62c1.059-1.84,1.888-4.13,3.451-5.39v-7.35a2.806,2.806,0,0,1-.291.02,4.236,4.236,0,0,1-2.268-.73,20.1,20.1,0,0,1-2.833-2.67,13.9,13.9,0,0,0-9.6-3.77m63.773-2.07h-12.13v3.28h12.654a22.28,22.28,0,0,0-.524-3.28m-12.13,0h-6.218v3.28h6.218v-3.28m-6.218,0H262.568v3.28h10.188v-3.28m-10.188,0H246.605c-0.325,1.08-.608,2.18-0.877,3.28h16.84v-3.28m-19.185,8.89a2.5,2.5,0,0,1-1.058.33v7.35a4.175,4.175,0,0,1,1.058-.63v-7.05m44.47,40.45H274.594a8.36,8.36,0,0,0,2.973,2.31,8.5,8.5,0,0,0,3.478.73,9.022,9.022,0,0,0,6.808-3.04m3.775-46.06H278.974v39.63h-6.431q-0.035.375-.035,0.75a9,9,0,0,0,2.086,5.68h13.259c0.07-.08.139-0.16,0.2-0.25a8.829,8.829,0,0,0-.108-10.71,17.769,17.769,0,0,0-3.633-3.02c-2.027-1.45-3.9-2.96-3.9-5.76h0v-0.1a7.638,7.638,0,0,1,1.085-3.69c1.231-2.11,3.149-3.72,4.751-5.57a22.986,22.986,0,0,0,5.461-14.99c0-.66-0.028-1.32-0.084-1.97m-12.654,0h-6.218v28.24a5.977,5.977,0,0,1,1.687,3.52q0.021,0.24.021,0.48h0c0,2.25-1.345,4.34-1.8,6.58a7.8,7.8,0,0,0-.121.81h6.431V2060.9m-6.218,0H262.568v24.08a49.977,49.977,0,0,1,6.87,1.89,10.049,10.049,0,0,1,3.318,2.27V2060.9m-10.188,0h-16.84c-0.2.8-.384,1.61-0.575,2.41a4.8,4.8,0,0,1-1.7,3.16c-0.023.01-.046,0.03-0.07,0.04v7.05a4.055,4.055,0,0,1,.5-0.17,4.158,4.158,0,0,1,.99-0.12,5.994,5.994,0,0,1,3.652,1.46,31.333,31.333,0,0,1,3.36,3.7,21.594,21.594,0,0,0,9.786,6.29c0.3,0.09.595,0.18,0.895,0.26V2060.9" transform="translate(-214 -2037)"/>
</svg>
