<svg xmlns="http://www.w3.org/2000/svg" width="84" height="78" viewBox="0 0 84 78">
  <metadata><?xpacket begin="﻿" id="W5M0MpCehiHzreSzNTczkc9d"?>
<x:xmpmeta xmlns:x="adobe:ns:meta/" x:xmptk="Adobe XMP Core 5.6-c138 79.159824, 2016/09/14-01:09:01        ">
   <rdf:RDF xmlns:rdf="http://www.w3.org/1999/02/22-rdf-syntax-ns#">
      <rdf:Description rdf:about=""/>
   </rdf:RDF>
</x:xmpmeta>
                                                                                                    
                                                                                                    
                                                                                                    
                                                                                                    
                                                                                                    
                                                                                                    
                                                                                                    
                                                                                                    
                                                                                                    
                                                                                                    
                                                                                                    
                                                                                                    
                                                                                                    
                                                                                                    
                                                                                                    
                                                                                                    
                                                                                                    
                                                                                                    
                                                                                                    
                                                                                                    
                           
<?xpacket end="w"?></metadata>
<defs>
    <style>
      .cls-1 {
        fill: #fff;
        fill-rule: evenodd;
      }
    </style>
  </defs>
  <path class="cls-1" d="M1022.99,2079.64c0,0.46-.01.91-0.05,1.36a18.813,18.813,0,0,1-3.08,10.08,18.147,18.147,0,0,1-4.76,4.81h0a20.237,20.237,0,0,1-11.53,3.66,18.173,18.173,0,0,1-5.025-.7,18.839,18.839,0,0,1-8.434-5.2,17.267,17.267,0,0,1-5.666-12.55,17.267,17.267,0,0,0,5.666,12.55,18.839,18.839,0,0,0,8.434,5.2,18.173,18.173,0,0,0,5.025.7,19.869,19.869,0,0,0,16.29-8.47,18.813,18.813,0,0,0,3.08-10.08c0.04-.45.05-0.9,0.05-1.36M990.8,2108.66a2.75,2.75,0,0,1,1.262-3.69A2.761,2.761,0,1,1,990.8,2108.66Zm-20.917-.76a6.808,6.808,0,1,1,6.455,7.1A6.788,6.788,0,0,1,969.886,2107.9Zm19.5-53.75a2.772,2.772,0,1,1-3.342-2.04A2.766,2.766,0,0,1,989.389,2054.15Zm15.191-14.37a6.74,6.74,0,0,1-1.48,9.46,6.825,6.825,0,0,1-9.512-1.47,6.744,6.744,0,0,1,1.481-9.46A6.825,6.825,0,0,1,1004.58,2039.78Zm-58.054,30.53a5.121,5.121,0,1,1-6.947,2.16A5.107,5.107,0,0,1,946.526,2070.31Zm5.853,16.19a2.035,2.035,0,1,1-1-2.69A2.043,2.043,0,0,1,952.379,2086.5Zm70.191-10.85a19.445,19.445,0,0,0-20.77-15.29c-6.382.57-11.993,5.66-18.452,2.14-5.169-2.82-4.141-6.99-5.94-11.67a13.881,13.881,0,0,0-3.664-5.32,13.974,13.974,0,0,0-18.805.16,12.878,12.878,0,0,0-3.031,16.09,13.882,13.882,0,0,0,5.837,6.12c1.777,0.97,3.97,1.23,5.194,3.01,2.172,3.17-1.814,4.94-3.48,6.9a11.339,11.339,0,0,0-2.51,9.66,11.5,11.5,0,1,0,18.024-11.6c-1.886-1.37-6.682-1.88-6.732-4.93-0.061-3.84,7.956-5.77,10.715-5.11,7.191,1.73,5.823,8.84,5.514,14.39a17.152,17.152,0,0,0,5.641,13.45,18.839,18.839,0,0,0,8.434,5.2,19.8,19.8,0,0,0,21.315-7.77,21.91,21.91,0,0,0,2.71-15.43m-47.6,18.69h0a11.608,11.608,0,0,1-4.4,1.94,12.136,12.136,0,0,1-2.382.24,11.572,11.572,0,0,1-4.5-.91v-1.27h-2.251a11.536,11.536,0,0,0,6.751,2.18,12.136,12.136,0,0,0,2.382-.24,11.608,11.608,0,0,0,4.4-1.94m-18.255-9.15h0a10.914,10.914,0,0,0,.237,2.26,11.409,11.409,0,0,0,4.489,6.89h2.251v-2.69h-4.908a11.344,11.344,0,0,1-1.832-4.2,10.914,10.914,0,0,1-.237-2.26m65.858-9.54a19.445,19.445,0,0,0-20.77-15.29c-6.382.57-11.993,5.66-18.452,2.14-5.169-2.82-4.141-6.99-5.94-11.67a13.881,13.881,0,0,0-3.664-5.32,13.974,13.974,0,0,0-18.805.16,12.878,12.878,0,0,0-3.031,16.09,13.882,13.882,0,0,0,5.837,6.12c1.777,0.97,3.97,1.23,5.194,3.01,2.172,3.17-1.814,4.94-3.48,6.9a11.339,11.339,0,0,0-2.51,9.66,11.5,11.5,0,1,0,18.024-11.6c-1.886-1.37-6.682-1.88-6.732-4.93-0.061-3.84,7.956-5.77,10.715-5.11,7.191,1.73,5.823,8.84,5.514,14.39a17.152,17.152,0,0,0,5.641,13.45,18.839,18.839,0,0,0,8.434,5.2,19.8,19.8,0,0,0,21.315-7.77,21.91,21.91,0,0,0,2.71-15.43m-7.47-11.56v31.8a18.147,18.147,0,0,0,4.76-4.81,18.813,18.813,0,0,0,3.08-10.08c0.04-.45.05-0.9,0.05-1.36a18.792,18.792,0,0,0-.42-3.99,19.475,19.475,0,0,0-7.47-11.56m-4.24-2.38v32.63H993.639v2.25a17.923,17.923,0,0,0,9.931,2.96,20.237,20.237,0,0,0,11.53-3.66v-31.8a19.11,19.11,0,0,0-3.96-2.27c-0.09-.03-0.19-0.07-0.28-0.11m-17.221,32.63h-1.414v1.24a17.327,17.327,0,0,0,1.414,1.01v-2.25m-1.414,0h-1.433c0.458,0.43.936,0.85,1.433,1.24v-1.24m11.3-34.06c-0.58,0-1.15.03-1.73,0.08a17.393,17.393,0,0,0-2.763.5v30.79h-5.4v2.69h17.221v-32.63a19.566,19.566,0,0,0-7.33-1.43m-9.891,31.37h-1.414v2.69h1.414v-2.69m-1.414,0h-3.961a20.082,20.082,0,0,0,1.847,2c0.222,0.24.449,0.46,0.681,0.69h1.433v-2.69m-17.258,2.69H963.689v1.27a11.572,11.572,0,0,0,4.5.91,12.136,12.136,0,0,0,2.382-.24,11.608,11.608,0,0,0,4.4-1.94m2.649-2.69H963.689v2.69h11.278a11.5,11.5,0,0,0,2.649-2.69m-25.752-42.16a12.688,12.688,0,0,0-1.317,3.63,12.236,12.236,0,0,0-.22,2.32,13.781,13.781,0,0,0,1.537,6.24v-12.19m11.825-7.52a13.958,13.958,0,0,0-2.126.28,13.772,13.772,0,0,0-6.441,3.26h8.567v-3.54m0,3.54h-8.567c-0.061.05-.122,0.11-0.183,0.16a14.228,14.228,0,0,0-3.075,3.82v12.19a0.487,0.487,0,0,0,.044.08,13.882,13.882,0,0,0,5.837,6.12c1.777,0.97,3.97,1.23,5.194,3.01a3.154,3.154,0,0,1,.632,1.79h0c0,2.12-2.788,3.56-4.112,5.11a11.456,11.456,0,0,0-2.747,7.4,10.914,10.914,0,0,0,.237,2.26,11.344,11.344,0,0,0,1.832,4.2h4.908v-46.14m35.348,15.35c-1.832.48-3.618,1.18-5.4,1.77v29.02h5.4v-30.79m-34.646-18.9c-0.234,0-.468,0-0.7.01v3.54h10.045a14.051,14.051,0,0,0-9.343-3.55m29.248,20.67c-0.471.16-.943,0.31-1.414,0.44v28.58h1.414v-29.02m-19.9-17.12H963.689v46.14h13.927a11.388,11.388,0,0,0-2.643-15.8c-1.886-1.37-6.682-1.88-6.732-4.93v-0.04h0c0-3.31,6.022-5.2,9.4-5.2a6.123,6.123,0,0,1,1.312.13c4.887,1.18,5.821,4.84,5.821,8.81h0c0,1.87-.208,3.81-0.307,5.58q-0.026.465-.025,0.9a16.819,16.819,0,0,0,3.819,10.55h3.961v-28.58a14.871,14.871,0,0,1-4.1.66,9.766,9.766,0,0,1-4.773-1.23c-5.169-2.82-4.141-6.99-5.94-11.67a13.881,13.881,0,0,0-3.664-5.32h-0.01" transform="translate(-939 -2037)"/>
</svg>
