<svg xmlns="http://www.w3.org/2000/svg" viewBox="0 0 11.88 7.9"><title>svg-email</title><g id="Capa_2" data-name="Capa 2"><g id="Capa_1-2" data-name="Capa 1"><path d="M9.84.88A1.16,1.16,0,0,1,11,2V5.86A1.16,1.16,0,0,1,9.84,7H2A1.16,1.16,0,0,1,.88,5.86V2A1.16,1.16,0,0,1,2,.88h7.8m0-.64H2A1.8,1.8,0,0,0,.24,2V5.86A1.8,1.8,0,0,0,2,7.66h7.8a1.8,1.8,0,0,0,1.8-1.8V2A1.8,1.8,0,0,0,9.84.24Z" style="fill:#195cf2;stroke:#195cf2;stroke-miterlimit:10;stroke-width:0.470551181102362px"/><path d="M5.92,5.36a.68.68,0,0,1-.39-.12L.43,1.66.8,1.13,5.9,4.71h0l5.11-3.56.37.53L6.31,5.24A.68.68,0,0,1,5.92,5.36Z" style="fill:#195cf2;stroke:#195cf2;stroke-miterlimit:10;stroke-width:0.470551181102362px"/></g></g></svg>