<svg xmlns="http://www.w3.org/2000/svg" viewBox="0 0 8.66 11.4"><title>place</title><g id="Capa_2" data-name="Capa 2"><g id="Capa_1-2" data-name="Capa 1"><path d="M4.41.8h0A3.45,3.45,0,0,1,6.82,1.86a3.27,3.27,0,0,1,1,2.29,5.29,5.29,0,0,1-.34,1.92A10.15,10.15,0,0,1,5.66,9.13c-.36.42-.76.83-1.15,1.23l-.19.2A14.48,14.48,0,0,1,1.91,7.65,7.1,7.1,0,0,1,.85,4.94,3.48,3.48,0,0,1,3.08,1.06,3.88,3.88,0,0,1,4.41.8m0-.57A4.43,4.43,0,0,0,2.89.52,4.06,4.06,0,0,0,.28,5,7.66,7.66,0,0,0,1.43,7.95,15,15,0,0,0,4,11a.54.54,0,0,0,.36.16A.46.46,0,0,0,4.67,11c.48-.5,1-1,1.42-1.52a10.75,10.75,0,0,0,2-3.23,5.84,5.84,0,0,0,.37-2.13A3.83,3.83,0,0,0,7.21,1.44,4,4,0,0,0,4.41.24Z" style="fill:#195cf2;stroke:#195cf2;stroke-miterlimit:10;stroke-width:0.470551181102362px"/><path d="M4.33,5.22A1.29,1.29,0,0,1,3.05,3.95,1.28,1.28,0,0,1,4.33,2.67h0A1.28,1.28,0,0,1,5.61,3.93,1.3,1.3,0,0,1,4.34,5.22Zm0-2a.71.71,0,0,0-.71.71.72.72,0,0,0,.71.71A.73.73,0,0,0,5,3.93a.72.72,0,0,0-.71-.7Z" style="fill:#195cf2;stroke:#195cf2;stroke-miterlimit:10;stroke-width:0.470551181102362px"/></g></g></svg>